<?xml version="1.0" encoding="UTF-8" standalone="no"?>
<svg
   xmlns:dc="http://purl.org/dc/elements/1.1/"
   xmlns:cc="http://creativecommons.org/ns#"
   xmlns:rdf="http://www.w3.org/1999/02/22-rdf-syntax-ns#"
   xmlns:svg="http://www.w3.org/2000/svg"
   xmlns="http://www.w3.org/2000/svg"
   width="481.601"
   height="56.001"
   viewBox="0 0 481.601 56.001"
   version="1.1"
   id="svg847">
  <metadata
     id="metadata853">
    <rdf:RDF>
      <cc:Work
         rdf:about="">
        <dc:format>image/svg+xml</dc:format>
        <dc:type
           rdf:resource="http://purl.org/dc/dcmitype/StillImage" />
        <dc:title></dc:title>
      </cc:Work>
    </rdf:RDF>
  </metadata>
  <defs
     id="defs851" />
  <g
     id="g2893"
     style="display:inline">
    <path
       d="m 134.4,56 h 11.2 V 16.8 c 0,-2.266 -0.45,-4.433 -1.35,-6.5 C 143.52722,8.6138459 142.5424,7.052571 141.332,5.674 141.11206,5.4258053 140.88462,5.1843602 140.65,4.95 139.21172,3.5217875 137.53044,2.3613131 135.685,1.523 135.5573,1.4639397 135.42896,1.4062696 135.3,1.35 133.234,0.45 131.067,0 128.8,0 H 89.6 v 56 h 11.2 V 11.2 h 28 c 1.46301,-0.01925 2.87077,0.558083 3.899,1.599 0.0171,0.01691 0.0341,0.03391 0.051,0.051 0.63445,0.618016 1.11056,1.37987 1.388,2.221 0.17721,0.559087 0.26562,1.142512 0.262,1.729 z M 16.8,56 H 56 V 44.8 H 16.8 C 15.337486,44.81924 13.930153,44.242298 12.902,43.202 12.88457,43.18476 12.86724,43.16743 12.85,43.15 12.215686,42.532268 11.73958,41.770771 11.462,40.93 11.284689,40.370593 11.19628,39.786823 11.2,39.2 V 16.8 c -0.01898,-1.462661 0.558335,-2.870015 1.599,-3.898 0.01691,-0.01743 0.03391,-0.03476 0.051,-0.052 0.618016,-0.634449 1.37987,-1.110565 2.221,-1.388 0.559087,-0.177208 1.142512,-0.265616 1.729,-0.262 H 56 V 0 H 16.8 C 14.467,0 12.284,0.45 10.25,1.35 8.217,2.25 6.434,3.45 4.9,4.95 3.367,6.45 2.167,8.234 1.3,10.3 0.434,12.367 0,14.534 0,16.8 v 22.4 c -0.01393828,2.074908 0.36085614,4.134073 1.105,6.071 0.062411,0.160709 0.1274193,0.320396 0.195,0.479 0.867,2.034 2.067,3.817 3.6,5.35 1.534,1.534 3.317,2.734 5.35,3.6 2.034,0.867 4.217,1.3 6.55,1.3 z m 156.8,0 h 39.2 V 44.8 h -39.2 c -1.46251,0.01924 -2.86985,-0.557702 -3.898,-1.598 -0.0174,-0.01724 -0.0348,-0.03457 -0.052,-0.052 -0.63431,-0.617732 -1.11042,-1.379229 -1.388,-2.22 -0.17731,-0.559407 -0.26572,-1.143177 -0.262,-1.73 v -5.6 h 44.8 V 16.8 c 0.0141,-2.074509 -0.36032,-4.133321 -1.104,-6.07 -0.0627,-0.16105 -0.12807,-0.321071 -0.196,-0.48 C 210.634,8.217 209.434,6.434 207.9,4.9 206.367,3.367 204.584,2.167 202.55,1.3 200.517,0.434 198.334,0 196,0 h -22.4 c -2.07457,-0.0138133 -4.13339,0.36097902 -6.07,1.105 -0.16104,0.062401 -0.32106,0.1274092 -0.48,0.195 -2.033,0.867 -3.816,2.067 -5.35,3.6 -1.533,1.534 -2.733,3.317 -3.6,5.35 -0.866,2.034 -1.3,4.217 -1.3,6.55 v 22.4 c -0.0139,2.074908 0.36086,4.134073 1.105,6.071 0.0624,0.160709 0.12742,0.320396 0.195,0.479 0.867,2.034 2.067,3.817 3.6,5.35 1.534,1.534 3.317,2.734 5.35,3.6 2.034,0.867 4.217,1.3 6.55,1.3 z M 67.2,56 H 78.4 V 0 H 67.2 Z M 201.6,16.8 v 5.6 H 168 v -5.6 c -0.019,-1.462661 0.55833,-2.870015 1.599,-3.898 0.0169,-0.01743 0.0339,-0.03476 0.051,-0.052 0.61802,-0.634449 1.37987,-1.110565 2.221,-1.388 0.55909,-0.177208 1.14251,-0.265616 1.729,-0.262 H 196 c 1.46301,-0.01925 2.87077,0.558083 3.899,1.599 0.0171,0.01691 0.0341,0.03391 0.051,0.051 0.63445,0.618016 1.11056,1.37987 1.388,2.221 0.17721,0.559087 0.26562,1.142512 0.262,1.729 z"
       vector-effect="non-scaling-stroke"
       id="path844"
       style="font-size:12px;display:inline;fill:#a02c2c;fill-opacity:1;fill-rule:evenodd;stroke:#a02c2c;stroke-width:0.25mm;stroke-linecap:round;stroke-opacity:1" />
    <path
       d="m 470.4,56 h 11.2 V 16.8 c 0.0141,-2.074509 -0.36032,-4.133321 -1.104,-6.07 -0.0627,-0.16105 -0.12807,-0.321071 -0.196,-0.48 C 479.434,8.217 478.234,6.434 476.7,4.9 475.167,3.367 473.384,2.167 471.35,1.3 469.317,0.434 467.134,0 464.8,0 h -22.4 c -2.07457,-0.0138133 -4.13339,0.36097902 -6.07,1.105 -0.16104,0.062401 -0.32106,0.1274092 -0.48,0.195 -2.033,0.867 -3.816,2.067 -5.35,3.6 -1.533,1.534 -2.733,3.317 -3.6,5.35 -0.866,2.034 -1.3,4.217 -1.3,6.55 V 56 h 11.2 V 16.8 c -0.019,-1.462661 0.55833,-2.870015 1.599,-3.898 0.0169,-0.01743 0.0339,-0.03476 0.051,-0.052 0.61802,-0.634449 1.37987,-1.110565 2.221,-1.388 0.55909,-0.177208 1.14251,-0.265616 1.729,-0.262 H 448 V 56 h 11.2 V 11.2 h 5.6 c 1.46301,-0.01925 2.87077,0.558083 3.899,1.599 0.0171,0.01691 0.0341,0.03391 0.051,0.051 0.63445,0.618016 1.11056,1.37987 1.388,2.221 0.17721,0.559087 0.26562,1.142512 0.262,1.729 z M 235.2,33.6 H 280 V 22.4 h -44.8 v -5.6 c -0.019,-1.462661 0.55833,-2.870015 1.599,-3.898 0.0169,-0.01743 0.0339,-0.03476 0.051,-0.052 0.61802,-0.634449 1.37987,-1.110565 2.221,-1.388 0.55909,-0.177208 1.14251,-0.265616 1.729,-0.262 H 280 V 0 h -39.2 c -2.333,0 -4.516,0.45 -6.55,1.35 -2.033,0.9 -3.816,2.1 -5.35,3.6 -1.533,1.5 -2.733,3.284 -3.6,5.35 -0.866,2.067 -1.3,4.234 -1.3,6.5 V 56 h 11.2 z m 140,-22.4 h 39.2 V 0 h -39.2 c -2.333,0 -4.516,0.45 -6.55,1.35 -2.033,0.9 -3.816,2.1 -5.35,3.6 -1.533,1.5 -2.733,3.284 -3.6,5.35 -0.866,2.067 -1.3,4.234 -1.3,6.5 V 56 h 11.2 V 16.8 c -0.019,-1.462661 0.55833,-2.870015 1.599,-3.898 0.0169,-0.01743 0.0339,-0.03476 0.051,-0.052 0.61802,-0.634449 1.37987,-1.110565 2.221,-1.388 0.55909,-0.177208 1.14251,-0.265616 1.729,-0.262 z m -28,28 V 16.8 c 0,-2.266 -0.45,-4.433 -1.35,-6.5 C 345.12722,8.6138459 344.1424,7.052571 342.932,5.674 342.71206,5.4258053 342.48462,5.1843602 342.25,4.95 340.81172,3.5217875 339.13044,2.3613131 337.285,1.523 337.1573,1.4639397 337.02896,1.4062696 336.9,1.35 334.834,0.45 332.667,0 330.4,0 H 308 c -2.333,0 -4.516,0.45 -6.55,1.35 -2.033,0.9 -3.816,2.1 -5.35,3.6 -1.533,1.5 -2.733,3.284 -3.6,5.35 -0.866,2.067 -1.3,4.234 -1.3,6.5 v 22.4 c 0,2.334 0.45,4.517 1.35,6.55 0.9,2.034 2.1,3.817 3.6,5.35 1.5,1.534 3.267,2.734 5.3,3.6 2.034,0.867 4.217,1.3 6.55,1.3 h 22.4 c 2.267,0 4.434,-0.433 6.5,-1.3 2.067,-0.866 3.85,-2.066 5.35,-3.6 1.5,-1.533 2.7,-3.316 3.6,-5.35 0.9,-2.033 1.35,-4.216 1.35,-6.55 z M 336,16.8 v 22.4 c 0.0195,1.46286 -0.55745,2.870605 -1.598,3.899 -0.0172,0.0171 -0.0346,0.0341 -0.052,0.051 -0.61773,0.634314 -1.37923,1.11042 -2.22,1.388 -0.55941,0.177311 -1.14318,0.26572 -1.73,0.262 H 308 c -1.46251,0.01924 -2.86985,-0.557702 -3.898,-1.598 -0.0174,-0.01724 -0.0348,-0.03457 -0.052,-0.052 -0.63431,-0.617732 -1.11042,-1.379229 -1.388,-2.22 -0.17731,-0.559407 -0.26572,-1.143177 -0.262,-1.73 V 16.8 c -0.019,-1.462661 0.55833,-2.870015 1.599,-3.898 0.0169,-0.01743 0.0339,-0.03476 0.051,-0.052 0.61802,-0.634449 1.37987,-1.110565 2.221,-1.388 0.55909,-0.177208 1.14251,-0.265616 1.729,-0.262 h 22.4 c 1.46301,-0.01925 2.87077,0.558083 3.899,1.599 0.0171,0.01691 0.0341,0.03391 0.051,0.051 0.63445,0.618016 1.11056,1.37987 1.388,2.221 0.17721,0.559087 0.26562,1.142512 0.262,1.729 z"
       vector-effect="non-scaling-stroke"
       id="path2906"
       style="font-size:12px;display:inline;fill:#b3b3b3;fill-rule:evenodd;stroke:#b3b3b3;stroke-width:0.25mm;stroke-linecap:round" />
  </g>
</svg>
