<svg xmlns="http://www.w3.org/2000/svg" xmlns:xlink="http://www.w3.org/1999/xlink" viewBox="-10 0 2112 1024" width="300" height="100" href="/es"><path fill="#7826e7" d="M369 243q-15 -27 -36.5 -27t-36.5 27l-279 516q-15 27 -3 47t43 20h551q31 0 43 -20t-3 -47l-279 -516v0zM864 779q-15 28 -36.5 28t-36.5 -28l-278 -514q-15 -28 -3.5 -47.5t43.5 -19.5h550q31 0 43 19.5t-4 47.5zM2058 475q27 16 27 38t-27 38l-446 256q-27 15 -46 4 t-19 -42v-512q0 -31 19 -42t46 4zM1440 752q0 31 -22 52.5t-52 21.5h-67q-30 0 -51.5 -22t-21.5 -52v-480q0 -30 21.5 -52t51.5 -22h67q30 0 52 22t22 52v480zM2026 788q0 -14 9.5 -24t23.5 -10q15 0 24 9.5t9 24.5t-9.5 24.5t-23.5 9.5q-15 0 -24 -9.5t-9 -24.5v0z M2086 788q0 -12 -7.5 -20.5t-19.5 -8.5t-19.5 8t-7.5 21q0 12 7.5 20t19.5 8t19.5 -7.5t7.5 -20.5zM2065 803l-8 -10h-4v9q0 2 -1 2.5t-2 0.5h-1q-2 0 -2.5 -1t-0.5 -3v-26q0 -3 1 -4t3 -1h10q7 0 10.5 3t3.5 8t-2.5 7.5t-6.5 3.5l9 11l-1.5 1.5t-3.5 1.5l-1.5 -1t-2.5 -2v0 zM2053 787h7q3 0 5 -1.5t2 -3.5q0 -3 -2 -4t-5 -1h-7v10v0z"></path></svg>