<svg width="333.201" height="71.401" viewBox="0 0 333.201 71.401" xmlns="http://www.w3.org/2000/svg"><g id="svgGroup" stroke-linecap="round" fill-rule="evenodd" font-size="9pt" stroke="#000" stroke-width="0.25mm" fill="#000" style="stroke:#000;stroke-width:0.25mm;fill:#000"><path d="M 129.6 0.001 L 129.6 71.401 L 119.1 71.401 L 80.9 12.101 L 80.5 12.101 Q 80.7 15.601 81 20.801 A 185.598 185.598 0 0 1 81.3 31.329 A 201.525 201.525 0 0 1 81.3 31.501 L 81.3 71.401 L 73 71.401 L 73 0.001 L 83.4 0.001 L 121.5 59.101 L 121.9 59.101 Q 121.823 57.876 121.718 55.713 A 685.066 685.066 0 0 1 121.65 54.301 Q 121.5 51.101 121.35 47.301 Q 121.2 43.501 121.2 40.301 L 121.2 0.001 L 129.6 0.001 Z M 256.5 0.001 L 256.5 71.401 L 247.5 71.401 L 247.5 38.101 L 210.9 38.101 L 210.9 71.401 L 201.9 71.401 L 201.9 0.001 L 210.9 0.001 L 210.9 30.201 L 247.5 30.201 L 247.5 0.001 L 256.5 0.001 Z M 141.1 71.401 L 160.5 44.001 L 142 17.801 L 152 17.801 L 165.8 38.001 L 179.5 17.801 L 189.4 17.801 L 170.9 44.001 L 190.4 71.401 L 180.4 71.401 L 165.8 50.001 L 151 71.401 L 141.1 71.401 Z M 19.9 71.401 L 0 71.401 L 0 0.001 L 22 0.001 A 49.241 49.241 0 0 1 30.895 0.766 A 35.955 35.955 0 0 1 40.7 4.001 Q 48.6 8.001 52.9 15.751 Q 57.2 23.501 57.2 35.001 A 52.986 52.986 0 0 1 56.238 45.439 Q 54.122 55.96 47.35 62.251 A 32.45 32.45 0 0 1 33.817 69.649 Q 28.778 71.069 22.764 71.338 A 64.117 64.117 0 0 1 19.9 71.401 Z M 295.9 71.401 L 276 71.401 L 276 0.001 L 298 0.001 A 49.241 49.241 0 0 1 306.895 0.766 A 35.955 35.955 0 0 1 316.7 4.001 Q 324.6 8.001 328.9 15.751 Q 333.2 23.501 333.2 35.001 A 52.986 52.986 0 0 1 332.238 45.439 Q 330.122 55.96 323.35 62.251 A 32.45 32.45 0 0 1 309.817 69.649 Q 304.778 71.069 298.764 71.338 A 64.117 64.117 0 0 1 295.9 71.401 Z M 20.7 7.701 L 9 7.701 L 9 63.701 L 18.7 63.701 A 42.82 42.82 0 0 0 30 62.342 Q 47.7 57.488 47.7 35.301 Q 47.7 21.001 40.65 14.351 Q 33.6 7.701 20.7 7.701 Z M 296.7 7.701 L 285 7.701 L 285 63.701 L 294.7 63.701 A 42.82 42.82 0 0 0 306 62.342 Q 323.7 57.488 323.7 35.301 Q 323.7 21.001 316.65 14.351 Q 309.6 7.701 296.7 7.701 Z" vector-effect="non-scaling-stroke"/></g></svg>