<svg width="343.023" height="71.587" viewBox="0 0 343.023 71.587" xmlns="http://www.w3.org/2000/svg"><g id="svgGroup" stroke-linecap="round" fill-rule="evenodd" font-size="9pt" stroke="#000" stroke-width="0.25mm" fill="#000" style="stroke:#000;stroke-width:0.25mm;fill:#000"><path d="M 171.631 70.459 L 186.377 70.459 L 186.377 44.678 L 198.438 44.678 L 211.572 70.459 L 228.271 70.459 L 213.428 42.481 A 20.367 20.367 0 0 0 226.087 24.602 A 25.546 25.546 0 0 0 226.172 22.51 L 226.172 22.412 C 226.172 8.545 216.992 0 200.977 0 L 171.631 0 L 171.631 70.459 Z M 343.018 54.004 L 343.018 53.955 C 343.018 47.03 339.21 42.73 331.145 40.218 A 44.144 44.144 0 0 0 327.246 39.209 L 318.311 37.305 C 315.127 36.607 313.11 35.765 311.966 34.633 A 4.099 4.099 0 0 1 310.742 31.543 L 310.742 31.494 A 5.308 5.308 0 0 1 313.941 26.697 C 314.864 26.226 315.957 25.895 317.176 25.723 A 14.417 14.417 0 0 1 319.189 25.586 A 13.398 13.398 0 0 1 322.574 25.997 C 325.868 26.856 327.869 28.947 328.467 31.153 L 328.516 31.397 L 341.748 31.397 L 341.748 31.201 C 341.287 24.395 336.344 18.589 327.372 16.428 A 34.76 34.76 0 0 0 319.238 15.528 A 32.848 32.848 0 0 0 309.817 16.813 C 306.487 17.812 303.687 19.366 301.55 21.375 A 14.714 14.714 0 0 0 296.826 32.373 L 296.826 32.422 C 296.826 39.954 301.264 44.84 310.22 47.24 A 39.319 39.319 0 0 0 312.158 47.705 L 321.143 49.61 C 324.405 50.338 326.485 51.274 327.633 52.523 A 4.226 4.226 0 0 1 328.76 55.518 L 328.76 55.615 A 5.06 5.06 0 0 1 326.068 60.002 C 325.217 60.518 324.186 60.915 323.01 61.174 A 16.002 16.002 0 0 1 319.58 61.524 A 16.024 16.024 0 0 1 316.122 61.172 C 314.868 60.895 313.787 60.462 312.876 59.903 A 7.591 7.591 0 0 1 309.57 55.811 L 309.473 55.615 L 295.459 55.615 L 295.508 55.811 A 15.861 15.861 0 0 0 304.075 68.206 C 306.259 69.413 308.842 70.331 311.812 70.902 A 40.377 40.377 0 0 0 319.434 71.582 C 333.203 71.582 343.018 64.649 343.018 54.004 Z M 285.889 55.762 L 285.986 55.274 L 272.705 55.274 L 272.559 55.567 A 5.764 5.764 0 0 1 272.097 56.355 C 270.706 58.369 267.362 60.938 261.865 60.938 A 12.844 12.844 0 0 1 255.653 59.479 C 251.785 57.371 249.515 53.049 249.414 46.973 L 286.426 46.973 L 286.426 42.53 C 286.426 26.27 276.66 15.528 260.986 15.528 A 26.614 26.614 0 0 0 247.947 18.673 C 239.98 23.091 235.303 31.921 235.303 43.604 L 235.303 43.653 A 35.07 35.07 0 0 0 237.336 55.925 C 240.642 64.791 247.844 70.344 257.955 71.399 A 34.867 34.867 0 0 0 261.572 71.582 A 34.653 34.653 0 0 0 268.756 70.87 C 279.472 68.603 284.507 61.37 285.889 55.762 Z M 0 70.459 L 14.746 70.459 L 14.746 48.242 L 29.053 48.242 A 27.995 27.995 0 0 0 41.04 45.74 C 48.99 41.996 53.809 34.282 53.809 24.17 L 53.809 24.072 A 25.812 25.812 0 0 0 51.057 12.063 C 47.99 6.173 42.514 2.124 35.398 0.634 A 30.95 30.95 0 0 0 29.053 0 L 0 0 L 0 70.459 Z M 65.967 70.459 L 80.225 70.459 L 80.225 40.381 A 13.262 13.262 0 0 1 81.458 34.562 C 82.865 31.653 85.424 29.627 88.856 28.699 A 17.623 17.623 0 0 1 93.457 28.125 C 95.654 28.125 97.852 28.467 100 28.955 L 100 16.504 A 16.806 16.806 0 0 0 98.613 16.189 C 97.656 16.011 96.577 15.883 95.498 15.838 A 19.775 19.775 0 0 0 94.678 15.821 A 17.255 17.255 0 0 0 88.976 16.72 A 12.132 12.132 0 0 0 81.104 25.049 L 80.225 25.049 L 80.225 16.699 L 65.967 16.699 L 65.967 70.459 Z M 158.643 43.604 L 158.643 43.506 A 34.992 34.992 0 0 0 156.634 31.321 C 152.921 21.303 144.241 15.528 132.129 15.528 C 115.723 15.528 105.615 26.172 105.615 43.506 L 105.615 43.604 A 35.577 35.577 0 0 0 107.544 55.671 C 110.734 64.533 117.758 70.069 127.695 71.314 A 35.656 35.656 0 0 0 132.129 71.582 C 148.682 71.582 158.643 61.133 158.643 43.604 Z M 120.215 43.604 L 120.215 43.506 C 120.215 33.008 124.561 26.709 132.129 26.709 A 10.495 10.495 0 0 1 142.03 33.09 C 142.832 34.746 143.404 36.698 143.728 38.917 A 31.761 31.761 0 0 1 144.043 43.506 L 144.043 43.604 C 144.043 54.199 139.697 60.401 132.129 60.401 C 125.77 60.401 121.726 56.079 120.562 48.488 A 32.33 32.33 0 0 1 120.215 43.604 Z M 38.867 24.121 L 38.867 24.219 A 14.602 14.602 0 0 1 37.9 29.695 C 36.069 34.244 31.709 36.719 25.439 36.719 L 14.746 36.719 L 14.746 11.67 L 25.439 11.67 A 18.243 18.243 0 0 1 31.062 12.477 C 35.189 13.814 37.829 16.786 38.618 21.181 A 16.63 16.63 0 0 1 38.867 24.121 Z M 186.377 33.936 L 186.377 11.524 L 199.17 11.524 A 14.673 14.673 0 0 1 204.414 12.416 C 208.322 13.908 210.711 17.184 211.044 21.617 A 14.522 14.522 0 0 1 211.084 22.705 L 211.084 22.803 A 12.729 12.729 0 0 1 210.109 27.91 C 208.441 31.743 204.693 33.936 199.365 33.936 L 186.377 33.936 Z M 272.754 38.037 L 249.561 38.037 C 250.132 33.087 252.27 29.58 255.4 27.731 A 11.333 11.333 0 0 1 261.23 26.221 A 10.46 10.46 0 0 1 270.924 31.803 C 271.646 33.129 272.188 34.689 272.523 36.479 A 21.717 21.717 0 0 1 272.754 38.037 Z" vector-effect="non-scaling-stroke"/></g></svg>